<svg t="1624347587147" class="icon" viewBox="0 0 1024 1024" version="1.1" xmlns="http://www.w3.org/2000/svg" p-id="3235"
  width="200" height="200">
  <path
    d="M512 208c-106 0-192 86-192 192s86 192 192 192 192-86 192-192-86-192-192-192z m0 288c-53 0-96-43-96-96s43-96 96-96 96 43 96 96-43 96-96 96z m0-480C238 16 16 238 16 512s222 496 496 496 496-222 496-496S786 16 512 16z m0 896c-99.4 0-190.2-36.6-260.2-96.8 29.8-46 80.8-77.2 139.2-79 41.6 12.8 81.2 19.2 121 19.2s79.4-6.2 121-19.2c58.4 2 109.4 33 139.2 79-70 60.2-160.8 96.8-260.2 96.8z m325.4-168.2c-48.8-62.8-124.2-103.8-210.2-103.8-20.4 0-52 19.2-115.2 19.2-63 0-94.8-19.2-115.2-19.2-85.8 0-161.2 41-210.2 103.8C139.8 678.4 112 598.4 112 512c0-220.6 179.4-400 400-400s400 179.4 400 400c0 86.4-27.8 166.4-74.6 231.8z"
    p-id="3236" fill="#3c3c3c"></path>
</svg>